<svg width="1442" height="326" fill="none" xmlns="http://www.w3.org/2000/svg"><g clip-path="url(#clip0)"><path d="M1442 0H2v326h1440V0Z" fill="#E6E9EF"/><path d="M56.4 0H2v136.9h54.4V0Zm1066 70.2 172.5 6.4v167.9L1122.4 70.2ZM636.6 244.5H386.9v81.4h249.7v-81.4ZM838.6 0v73.4H710c-31.6 0-58.5-20-68.9-48-2.9-7.9-4.5-16.5-4.5-25.4h202Z" fill="#ADDEC9"/><path d="M797.2 50.1c9.61 0 17.4-7.79 17.4-17.4s-7.79-17.4-17.4-17.4-17.4 7.79-17.4 17.4 7.79 17.4 17.4 17.4Z" fill="#06C167"/><path d="M798.5 32.7h-2.6v25.2h2.6V32.7Z" fill="#4F545B"/><path d="M762.8 13.2h-2c-4.9 0-8.9 4-8.9 8.9v16.8c0 4.9 4 8.9 8.9 8.9h2c4.9 0 8.9-4 8.9-8.9V22.1c0-4.9-4-8.9-8.9-8.9Z" fill="#06C167"/><path d="M762.9 27.9h-2.2v30h2.2v-30Z" fill="#4F545B"/><path d="M451.2 289.1c0 1.8-2 3.2-2.6 4.8-.5 1.7.2 4-.8 5.4-1 1.4-3.5 1.4-4.9 2.4-1.4 1-2.1 3.4-3.8 3.9-1.6.5-3.6-.9-5.4-.9-1.8 0-3.8 1.5-5.4.9-1.7-.5-2.4-2.9-3.8-3.9s-3.9-1-4.9-2.4c-1-1.4-.2-3.7-.8-5.4-.5-1.6-2.6-3-2.6-4.8 0-1.8 2-3.2 2.6-4.8.5-1.7-.2-4 .8-5.4 1-1.4 3.5-1.4 4.9-2.4 1.4-1 2.1-3.4 3.8-3.9 1.6-.5 3.6.9 5.4.9 1.8 0 3.8-1.5 5.4-.9 1.7.5 2.4 2.9 3.8 3.9s3.9 1 4.9 2.4c1 1.4.2 3.7.8 5.4.5 1.6 2.6 3 2.6 4.8Z" fill="#06C167"/><path d="M434.7 287.6h-2v27.7h2v-27.7Z" fill="#4F545B"/><path d="m441.249 289.592-8.556 8.556 1.414 1.414 8.556-8.556-1.414-1.414Z" fill="#4F545B"/><path d="M1442 239.9H2v9.1h1440v-9.1ZM641.1 0v96.9c0 25-20.3 45.3-45.3 45.3H2v-9h593.9c20 0 36.2-16.3 36.2-36.2V0h9Z" fill="#fff"/><path d="M396 .1h-9.1v325.8h9.1V.1ZM297.4 249H51.9V133.1h245.5V249ZM61 239.9h227.4v-97.7H61v97.7Z" fill="#fff"/><path d="M61 0h-9.1v163H61V0Zm1317.2 326h-12.8L1116 76.6l6.4-6.4L1301.2 249l77 77Zm-1171.9 0h12.8l79.8-79.7-6.4-6.4-7.7 7.7-70.9 70.8-7.5 7.5-.1.1Zm434.9-81.6h-9.1v81.5h9.1v-81.5ZM843.2 0h-9.1v325.9h9.1V0Z" fill="#fff"/><path d="M1442 68.9H838.6V78H1442v-9.1Zm-1050.6 0h-335V78h335v-9.1Z" fill="#fff"/><path d="M1294.9 1.7h-9.1v242.8h9.1V1.7ZM848.7 68.9v9H710c-29.8 0-55.8-16.9-68.9-41.5-5.8-10.9-9-23.2-9-36.4h9v2c1.1 37 31.6 66.9 68.9 66.9h138.7Z" fill="#fff"/><g filter="url(#filter0_d)"><circle cx="302.5" cy="286.5" r="18.5" fill="#fff"/><g clip-path="url(#clip1)"><path fill-rule="evenodd" clip-rule="evenodd" d="M300.187 284.444v-5.395h1.542v5.395c0 1.773-1.156 3.238-2.698 3.7v7.863h-2.312v-7.863c-1.542-.539-2.698-2.004-2.698-3.7v-5.395h1.541v5.395h1.542v-5.395h1.542v5.395h1.541Zm3.084-1.541a3.816 3.816 0 0 1 3.854-3.854 3.816 3.816 0 0 1 3.854 3.854v1.541c0 1.696-1.156 3.161-2.698 3.623v7.94h-2.312v-7.94c-1.542-.462-2.698-1.927-2.698-3.623v-1.541Z" fill="#000"/></g><circle cx="875.5" cy="41.5" r="18.5" fill="#fff"/><g clip-path="url(#clip2)"><path fill-rule="evenodd" clip-rule="evenodd" d="M873.188 39.444V34.05h1.541v5.395c0 1.773-1.156 3.238-2.698 3.7v7.863h-2.312v-7.863c-1.542-.54-2.698-2.004-2.698-3.7V34.05h1.542v5.395h1.541V34.05h1.542v5.395h1.542Zm3.083-1.541a3.817 3.817 0 0 1 3.854-3.854 3.817 3.817 0 0 1 3.854 3.854v1.541c0 1.696-1.156 3.16-2.698 3.623v7.94h-2.312v-7.94c-1.542-.462-2.698-1.927-2.698-3.623v-1.541Z" fill="#000"/></g></g><path opacity=".29" d="M97.9 121c9.72 0 17.6-7.88 17.6-17.6 0-9.72-7.88-17.6-17.6-17.6-9.72 0-17.6 7.88-17.6 17.6 0 9.72 7.88 17.6 17.6 17.6Z" fill="#276EF1"/><path d="M97.9 112a8.6 8.6 0 0 0 8.6-8.6 8.6 8.6 0 1 0-8.6 8.6Z" fill="#276EF1"/><g filter="url(#filter1_d)"><circle cx="252.5" cy="42.5" fill="#fff" r="18.5"/><path d="M256.354 36.59c-1.696 0-2.929.925-3.854 1.927-.925-.925-2.158-1.927-3.854-1.927-2.698 0-4.625 2.236-4.625 5.01 0 1.388.539 2.622 1.541 3.47l6.938 6.552 6.937-6.553c.925-.925 1.542-2.08 1.542-3.468 0-2.775-1.927-5.01-4.625-5.01Z" fill="#000"/></g></g><path d="M1442 137H0V0h1442v137Z" fill="url(#paint0_linear)"/><defs><clipPath id="clip0"><path fill="#fff" transform="translate(2)" d="M0 0h1440v326H0z"/></clipPath><clipPath id="clip1"><path fill="#fff" transform="translate(293.25 278.278)" d="M0 0h18.5v18.5H0z"/></clipPath><clipPath id="clip2"><path fill="#fff" transform="translate(866.25 33.278)" d="M0 0h18.5v18.5H0z"/></clipPath><filter id="filter0_d" x="236" y="-9" width="706" height="378" filterUnits="userSpaceOnUse" color-interpolation-filters="sRGB"><feFlood flood-opacity="0" result="BackgroundImageFix"/><feColorMatrix in="SourceAlpha" values="0 0 0 0 0 0 0 0 0 0 0 0 0 0 0 0 0 0 127 0" result="hardAlpha"/><feOffset dy="16"/><feGaussianBlur stdDeviation="24"/><feColorMatrix values="0 0 0 0 0 0 0 0 0 0 0 0 0 0 0 0 0 0 0.22 0"/><feBlend in2="BackgroundImageFix" result="effect1_dropShadow"/><feBlend in="SourceGraphic" in2="effect1_dropShadow" result="shape"/></filter><filter id="filter1_d" x="186" y="-8" width="133" height="133" filterUnits="userSpaceOnUse" color-interpolation-filters="sRGB"><feFlood flood-opacity="0" result="BackgroundImageFix"/><feColorMatrix in="SourceAlpha" values="0 0 0 0 0 0 0 0 0 0 0 0 0 0 0 0 0 0 127 0" result="hardAlpha"/><feOffset dy="16"/><feGaussianBlur stdDeviation="24"/><feColorMatrix values="0 0 0 0 0 0 0 0 0 0 0 0 0 0 0 0 0 0 0.22 0"/><feBlend in2="BackgroundImageFix" result="effect1_dropShadow"/><feBlend in="SourceGraphic" in2="effect1_dropShadow" result="shape"/></filter><linearGradient id="paint0_linear" x1="719.923" y1="112.536" x2="720.428" y2=".002" gradientUnits="userSpaceOnUse"><stop stop-color="#fff" stop-opacity="0"/><stop offset=".384" stop-color="#fff" stop-opacity=".473"/><stop offset=".815" stop-color="#fff"/></linearGradient></defs></svg>